<?xml version="1.0" encoding="UTF-8"?>
<svg width="42px" height="42px" viewBox="0 0 42 42" version="1.1" xmlns="http://www.w3.org/2000/svg" xmlns:xlink="http://www.w3.org/1999/xlink">
    <!-- Generator: Sketch 56.3 (81716) - https://sketch.com -->
    <title>Behance_Normal</title>
    <desc>Created with Sketch.</desc>
    <g id="Page-1" stroke="none" stroke-width="1" fill="none" fill-rule="evenodd">
        <g id="Landing-Page" transform="translate(-779.000000, -2266.000000)">
            <g id="Behance_Normal" transform="translate(779.000000, 2266.000000)">
                <rect id="Rectangle" fill="#F3F3F3" x="0" y="0" width="42" height="42" rx="4"></rect>
                <g id="social-48px-glyph-1_logo-behance" transform="translate(12.000000, 15.000000)" fill="#A0A0A0" fill-rule="nonzero">
                    <path d="M7.88125,5.85 C7.88125,5.85 9.709375,5.728125 9.709375,3.534375 C9.709375,1.38125 8.20625,0.325 6.296875,0.325 L2.7625,0.325 L2.68125,0.325 L0,0.325 L0,12.43125 L2.68125,12.43125 L2.803125,12.43125 L6.3375,12.43125 C6.3375,12.43125 10.196875,12.553125 10.196875,8.85625 C10.115625,8.85625 10.31875,5.85 7.88125,5.85 Z M2.7625,2.478125 L5.809375,2.478125 L6.25625,2.478125 C6.25625,2.478125 7.109375,2.478125 7.109375,3.7375 C7.109375,4.996875 6.621875,5.159375 6.053125,5.159375 L2.7625,5.159375 L2.7625,2.478125 Z M6.134375,10.278125 L2.7625,10.278125 L2.7625,7.028125 L6.296875,7.028125 C6.296875,7.028125 7.55625,7.028125 7.55625,8.69375 C7.55625,10.115625 6.621875,10.2375 6.134375,10.278125 Z" id="Shape"></path>
                    <path d="M15.275,3.4125 C10.64375,3.4125 10.64375,8.04375 10.64375,8.04375 C10.64375,8.04375 10.31875,12.675 15.275,12.675 C15.275,12.675 19.41875,12.91875 19.41875,9.465625 L17.30625,9.465625 C17.30625,9.465625 17.3875,10.765625 15.35625,10.765625 C15.35625,10.765625 13.24375,10.928125 13.24375,8.653125 L19.5,8.653125 C19.459375,8.653125 20.15,3.4125 15.275,3.4125 Z M17.14375,7.028125 L13.1625,7.028125 C13.1625,7.028125 13.40625,5.159375 15.275,5.159375 C17.184375,5.159375 17.14375,7.028125 17.14375,7.028125 Z" id="Shape"></path>
                    <rect id="Rectangle" x="12.59375" y="0.8125" width="5.28125" height="1.625"></rect>
                </g>
            </g>
        </g>
    </g>
</svg>