<?xml version="1.0" encoding="UTF-8"?>
<svg width="42px" height="42px" viewBox="0 0 42 42" version="1.1" xmlns="http://www.w3.org/2000/svg" xmlns:xlink="http://www.w3.org/1999/xlink">
    <!-- Generator: Sketch 56.3 (81716) - https://sketch.com -->
    <title>Email_OnHover</title>
    <desc>Created with Sketch.</desc>
    <g id="Page-1" stroke="none" stroke-width="1" fill="none" fill-rule="evenodd">
        <g id="Landing-Page" transform="translate(-621.000000, -2203.000000)">
            <g id="Email_OnHover" transform="translate(621.000000, 2203.000000)">
                <rect id="Rectangle" fill="#F3F3F3" x="0" y="0" width="42" height="42" rx="4"></rect>
                <path d="M26.6,15 L15.4,15 C14.08,15 13,16.096875 13,17.4375 L13,25.5625 C13,26.903125 14.08,28 15.4,28 L26.6,28 C27.92,28 29,26.903125 29,25.5625 L29,17.4375 C29,16.096875 27.92,15 26.6,15 Z M15.4,16.625 L26.6,16.625 C27.04,16.625 27.4,16.990625 27.4,17.4375 L27.4,17.7726563 L21,21.3882813 L14.6,17.7726563 L14.6,17.4375 C14.6,16.990625 14.96,16.625 15.4,16.625 Z M26.6,26.375 L15.4,26.375 C14.96,26.375 14.6,26.009375 14.6,25.5625 L14.6,19.63125 L20.61,23.0234375 C20.73,23.0945312 20.86,23.125 21,23.125 C21.14,23.125 21.27,23.0945312 21.39,23.0234375 L27.4,19.63125 L27.4,25.5625 C27.4,26.009375 27.04,26.375 26.6,26.375 Z" id="Shape" fill="#424242" fill-rule="nonzero"></path>
            </g>
        </g>
    </g>
</svg>