<?xml version="1.0" encoding="UTF-8"?>
<svg width="42px" height="42px" viewBox="0 0 42 42" version="1.1" xmlns="http://www.w3.org/2000/svg" xmlns:xlink="http://www.w3.org/1999/xlink">
    <!-- Generator: Sketch 56.3 (81716) - https://sketch.com -->
    <title>Linkedin_Normal</title>
    <desc>Created with Sketch.</desc>
    <g id="Page-1" stroke="none" stroke-width="1" fill="none" fill-rule="evenodd">
        <g id="Landing-Page" transform="translate(-675.000000, -2266.000000)">
            <g id="Linkedin_Normal" transform="translate(675.000000, 2266.000000)">
                <rect id="Rectangle" fill="#F3F3F3" x="0" y="0" width="42" height="42" rx="4"></rect>
                <g id="Group-10" transform="translate(14.000000, 14.000000)" fill="#A0A0A0">
                    <polygon id="Path" points="3.06923077 13.8115385 0.201923077 13.8115385 0.201923077 4.56346154 3.06923077 4.56346154"></polygon>
                    <path d="M1.65576923,3.31153846 C0.726923077,3.31153846 -1.45528034e-12,2.58461538 -1.45528034e-12,1.65576923 C-1.45528034e-12,0.726923077 0.726923077,-1.45528034e-12 1.65576923,-1.45528034e-12 C2.58461538,-1.45528034e-12 3.31153846,0.726923077 3.31153846,1.65576923 C3.31153846,2.54423077 2.58461538,3.31153846 1.65576923,3.31153846 Z" id="Path"></path>
                    <path d="M13.8519231,13.8115385 L10.9846154,13.8115385 L10.9846154,9.32884615 C10.9846154,8.23846154 10.9846154,6.86538462 9.49038462,6.86538462 C7.99615385,6.86538462 7.75384615,8.03653846 7.75384615,9.24807692 L7.75384615,13.8115385 L4.88653846,13.8115385 L4.88653846,4.56346154 L7.63269231,4.56346154 L7.63269231,5.81538462 L7.67307692,5.81538462 C8.03653846,5.08846154 9.00576923,4.32115385 10.3788462,4.32115385 C13.2865385,4.32115385 13.8115385,6.21923077 13.8115385,8.72307692 L13.8115385,13.8115385 L13.8519231,13.8115385 Z" id="Path"></path>
                </g>
            </g>
        </g>
    </g>
</svg>