<?xml version="1.0" encoding="UTF-8"?>
<svg width="42px" height="42px" viewBox="0 0 42 42" version="1.1" xmlns="http://www.w3.org/2000/svg" xmlns:xlink="http://www.w3.org/1999/xlink">
    <!-- Generator: Sketch 56.3 (81716) - https://sketch.com -->
    <title>Medium_OnHover</title>
    <desc>Created with Sketch.</desc>
    <g id="Page-1" stroke="none" stroke-width="1" fill="none" fill-rule="evenodd">
        <g id="Landing-Page" transform="translate(-725.000000, -2203.000000)">
            <g id="Medium_OnHover" transform="translate(725.000000, 2203.000000)">
                <rect id="Rectangle" fill="#F3F3F3" x="0" y="0" width="42" height="42" rx="4"></rect>
                <path d="M14.8972923,17.6519694 C14.917171,17.4509572 14.8422718,17.2522789 14.6956116,17.11699 L13.2016807,15.2751323 L13.2016807,15 L17.8403361,15 L21.4257703,23.047619 L24.5779646,15 L29,15 L29,15.2751323 L27.7226891,16.5285126 C27.6125709,16.6144185 27.5579466,16.7556108 27.5807657,16.8953557 L27.5807657,26.1046444 C27.5579466,26.2443893 27.6125709,26.3855815 27.7226891,26.4714874 L28.9701214,27.7248678 L28.9701214,28 L22.6956116,28 L22.6956116,27.7248678 L23.9878619,26.4409171 C24.1148459,26.3109935 24.1148459,26.2727807 24.1148459,26.0740741 L24.1148459,18.6302175 L20.5219421,27.9694297 L20.0364146,27.9694297 L15.853408,18.6302175 L15.853408,24.8894768 C15.8185316,25.1526336 15.9039291,25.417575 16.0849673,25.6078778 L17.7656396,27.6942975 L17.7656396,27.9694297 L13,27.9694297 L13,27.6942975 L14.6806723,25.6078778 C14.8603923,25.4172595 14.9408102,25.1505606 14.8972923,24.8894768 L14.8972923,17.6519694 Z" id="Shape" fill="#424242" fill-rule="nonzero"></path>
            </g>
        </g>
    </g>
</svg>